<?xml version="1.0" standalone="no"?><!DOCTYPE svg PUBLIC "-//W3C//DTD SVG 1.1//EN" "http://www.w3.org/Graphics/SVG/1.1/DTD/svg11.dtd"><svg t="1685513720632" class="icon" viewBox="0 0 1024 1024" version="1.1" xmlns="http://www.w3.org/2000/svg" p-id="38005" xmlns:xlink="http://www.w3.org/1999/xlink" width="64" height="64"><path d="M32.1 408C32 620.1 203.9 792.1 415.9 792.1S800 620.3 800.1 408.3v-0.2c0-212.1-171.9-384-384-384C204 24 32.1 195.9 32.1 408z" fill="#E9EAEB" p-id="38006"></path><path d="M656 200h32v96h-32v-96z" fill="#BCC0C4" p-id="38007"></path><path d="M624 232h96v32h-96v-32z m256 0h32v96h-32v-96z" fill="#BCC0C4" p-id="38008"></path><path d="M848.1 264.1h96v32h-96v-32zM752 56h32v96h-32V56z" fill="#BCC0C4" p-id="38009"></path><path d="M720.1 88.1h96v32h-96v-32z" fill="#BCC0C4" p-id="38010"></path><path d="M880 968h80v32h-80v-32z m112 0h32v32h-32v-32zM0 968h32v32H0v-32z" fill="#2A5082" p-id="38011"></path><path d="M560 440.1h144v480H560v-480z" fill="#A3D4FF" p-id="38012"></path><path d="M720.1 936.1h-176v-512h176v512z m-144.4-32H688V455.9H576.1l-0.4 448.2z" fill="#2A5082" p-id="38013"></path><path d="M144 216.1h144v704H144v-704z" fill="#A3D4FF" p-id="38014"></path><path d="M304 936.1H127.9V199.7H304v736.4z m-144.3-32h112.6V232H160.1l-0.4 672.1z" fill="#2A5082" p-id="38015"></path><path d="M352 584h144v336H352V584z" fill="#E9EAEB" p-id="38016"></path><path d="M512 936.1H336v-368h176v368z m-144.3-32H480V600.2H368l-0.3 303.9z" fill="#2A5082" p-id="38017"></path><path d="M768 648.1h144v272H768v-272z" fill="#E9EAEB" p-id="38018"></path><path d="M928.1 936.1H752V632.2h176v303.9z m-144.4-32h112V664H784l-0.3 240.1zM64 968h784v32H64v-32z" fill="#2A5082" p-id="38019"></path></svg>