<?xml version="1.0" standalone="no"?><!DOCTYPE svg PUBLIC "-//W3C//DTD SVG 1.1//EN" "http://www.w3.org/Graphics/SVG/1.1/DTD/svg11.dtd"><svg t="1685512890233" class="icon" viewBox="0 0 1024 1024" version="1.1" xmlns="http://www.w3.org/2000/svg" p-id="17891" width="64" height="64" xmlns:xlink="http://www.w3.org/1999/xlink"><path d="M260.2 884.1H97.7v-203h162.4v203z m-123.9-38.6h85.3V719.6h-85.3v125.9zM463.2 884.1H300.8V599.8h162.4v284.3z m-123.8-38.6h85.3V638.4h-85.3v207.1zM666.3 884.1H503.9V478h162.4v406.1z m-123.8-38.6h85.3v-329h-85.3v329zM869.3 884.1H706.9V396.8h162.4v487.3z m-123.8-38.6h85.3V435.4h-85.3v410.1z" fill="#1196db" p-id="17892"></path><path d="M150.1 574l-27.4-27.3 204.7-205.4 115.5 119.3 206.3-215.8 84.2 75.2L862 159.8l30.1 24.1-154 192-86.8-77.5-208.2 217.9-116-119.9z" fill="#1196db" p-id="17893"></path><path d="M927.7 309.2h-38.5v-129H741.8v-38.5h185.9z" fill="#1196db" p-id="17894"></path></svg>