<?xml version="1.0" standalone="no"?><!DOCTYPE svg PUBLIC "-//W3C//DTD SVG 1.1//EN" "http://www.w3.org/Graphics/SVG/1.1/DTD/svg11.dtd"><svg t="1685514086464" class="icon" viewBox="0 0 1024 1024" version="1.1" xmlns="http://www.w3.org/2000/svg" p-id="52571" width="80" height="80" xmlns:xlink="http://www.w3.org/1999/xlink"><path d="M734.66 216.32L400.78 817.97l-37.94-126.59 371.82-475.06z" fill="#279ACC" p-id="52572"></path><path d="M631.43 861a67.17 67.17 0 0 1-39.87-13.19l-109.3-80.06a26.28 26.28 0 1 1 31.06-42.39l109.3 80.06a15.18 15.18 0 0 0 24-10.38l70.28-565.38a11.63 11.63 0 0 0-16.07-12.14L177.4 438.82a15.33 15.33 0 0 0-3.28 26.34l141.57 105.33a26.27 26.27 0 0 1-31.36 42.16L142.6 507.21a67.88 67.88 0 0 1 14.33-116.79l523.43-221.31a64.18 64.18 0 0 1 88.69 67L698.8 801.55a67.13 67.13 0 0 1-40.38 53.85 68.26 68.26 0 0 1-26.99 5.6z" fill="#303030" p-id="52573"></path><path d="M379.15 835.23A26.28 26.28 0 0 1 352.87 809V658.32l347.3-473.47a26.27 26.27 0 1 1 42.37 31.08l-337.12 459.6V809a26.28 26.28 0 0 1-26.27 26.23z" fill="#303030" p-id="52574"></path></svg>