<?xml version="1.0" standalone="no"?><!DOCTYPE svg PUBLIC "-//W3C//DTD SVG 1.1//EN" "http://www.w3.org/Graphics/SVG/1.1/DTD/svg11.dtd"><svg t="1685513379136" class="icon" viewBox="0 0 1024 1024" version="1.1" xmlns="http://www.w3.org/2000/svg" p-id="20677" xmlns:xlink="http://www.w3.org/1999/xlink" width="64" height="64"><path d="M548.864 90.112l10.944 7.488c16.768 10.88 60.736 37.76 121.792 62.016 46.976 18.048 96.64 28.608 147.328 31.296l35.392 0.512a32 32 0 0 1 31.552 32L896 569.984c0 46.592-14.016 95.296-41.6 144.768a516.032 516.032 0 0 1-98.112 122.624 558.272 558.272 0 0 1-122.304 87.552C589.312 947.84 547.136 960 512 960c-35.328 0-77.056-11.84-121.216-34.56a557.952 557.952 0 0 1-123.2-88.064C178.816 754.368 128 656.896 128 570.048V254.912a64 64 0 0 1 63.104-64h4.032a464.448 464.448 0 0 0 147.392-31.36c78.464-31.168 127.232-65.664 129.344-67.136l3.008-2.112a64 64 0 0 1 73.984-0.192zM512 142.4l-2.816 1.984c-28.672 20.608-78.464 49.024-143.36 74.88a530.752 530.752 0 0 1-169.728 35.648H192v315.136c0 67.328 42.56 148.864 119.36 220.608 34.24 32 71.936 58.88 108.8 77.888C455.68 886.848 487.872 896 512 896c23.808 0 56.32-9.344 92.032-27.712a495.936 495.936 0 0 0 108.864-77.952 450.944 450.944 0 0 0 85.568-106.816c22.528-40.32 33.472-78.464 33.472-113.472l-0.192-315.136-6.336-0.128a547.776 547.776 0 0 1-144.192-27.328l-23.296-8.32c-60.608-24.064-118.4-56.384-138.688-71.296L512 142.4zM672.128 352l49.6 40.448-226.368 277.376-160.448-147.712 44.48-46.08L489.792 575.36l182.4-223.36z" fill="#1296db" p-id="20678"></path></svg>