<?xml version="1.0" standalone="no"?><!DOCTYPE svg PUBLIC "-//W3C//DTD SVG 1.1//EN" "http://www.w3.org/Graphics/SVG/1.1/DTD/svg11.dtd"><svg t="1685514589899" class="icon" viewBox="0 0 1024 1024" version="1.1" xmlns="http://www.w3.org/2000/svg" p-id="61890" width="100" height="100" xmlns:xlink="http://www.w3.org/1999/xlink"><path d="M505.589206 805.143354l-2.721316-0.784996c-117.958604-33.807124-200.069096-127.221546-237.539531-270.038329a696.029028 696.029028 0 0 1-20.933204-205.982726l0.470997-6.332295 280.557265-120.732253 240.731844 120.889252 0.837329 5.233301c32.603465 203.732407-39.406756 322.580672-105.503348 386.426944a376.274339 376.274339 0 0 1-153.388051 90.588439z m-240.731844-469.008433a697.232688 697.232688 0 0 0 20.933204 193.632136c35.743446 135.751827 109.89932 221.159299 220.112638 253.86743a366.697399 366.697399 0 0 0 142.031789-85.250473c89.437114-86.820463 122.877907-208.65171 99.432718-362.144427l-222.624623-111.887975z" p-id="61891"></path><path d="M690.115398 568.388818c64.997598 0 117.696939 54.059999 117.696939 120.732253s-52.699341 120.732253-117.696939 120.732253-117.696939-54.059999-117.696938-120.732253 52.699341-120.732253 117.696938-120.732253z" fill="#FFFFFF" p-id="61892"></path><path d="M690.115398 820.319926c-70.701896 0-128.163541-58.822303-128.16354-131.198855s57.566311-131.198855 128.16354-131.198855 128.163541 58.874636 128.163541 131.198855-57.513978 131.198855-128.163541 131.198855z m0-241.464506c-59.136301 0-107.230337 49.507027-107.230336 110.265651s48.094036 110.265651 107.230336 110.265652 107.230337-49.454694 107.230337-110.265652-48.094036-110.265651-107.230337-110.265651z" p-id="61893"></path><path d="M495.384269 618.942505l-16.537231-12.87392 92.053764-118.534267-154.696376-18.26422 129.314867-148.154751 15.804569 13.763582-103.253028 118.272602 152.132059 17.950222-114.818624 147.840752z" fill="#1580E0" p-id="61894"></path><path d="M696.343027 638.986048a73.266214 73.266214 0 0 1 14.391577 1.622323 36.633107 36.633107 0 0 1 13.972914 6.593959 28.364491 28.364491 0 0 1 7.954617 10.466602 37.889099 37.889099 0 0 1 2.721317 13.240252 29.201819 29.201819 0 0 1-4.814637 16.223233 31.399806 31.399806 0 0 1-13.344918 10.832933 25.119845 25.119845 0 0 1 11.722595 9.629274 33.964123 33.964123 0 0 1 4.343639 14.705575 108.643328 108.643328 0 0 0 6.907958 30.039148h-19.677212a47.099709 47.099709 0 0 1-3.035315-10.047938 157.784024 157.784024 0 0 1-2.250319-17.897889 30.039148 30.039148 0 0 0-1.779322-7.483621 18.002555 18.002555 0 0 0-4.081975-6.018296 19.153882 19.153882 0 0 0-12.769254-4.657638h-26.166505v46.105382h-18.473553V638.986048z m-25.852507 50.920018h24.334849a43.698063 43.698063 0 0 0 7.797619-0.732662 22.60786 22.60786 0 0 0 7.692952-3.610977 17.845556 17.845556 0 0 0 4.762304-5.861298 19.834211 19.834211 0 0 0 1.674656-7.535953 19.153882 19.153882 0 0 0-1.674656-7.221955 16.746563 16.746563 0 0 0-4.762304-5.547299 23.288189 23.288189 0 0 0-8.00695-3.139981 35.429448 35.429448 0 0 0-8.111617-0.941994h-23.706853z" p-id="61895"></path></svg>